<?xml version="1.0" standalone="no"?>
<!DOCTYPE svg PUBLIC "-//W3C//DTD SVG 20010904//EN"
 "http://www.w3.org/TR/2001/REC-SVG-20010904/DTD/svg10.dtd">
<svg version="1.0" xmlns="http://www.w3.org/2000/svg"
 width="573.000000pt" height="573.000000pt" viewBox="0 0 573.000000 573.000000"
 preserveAspectRatio="xMidYMid meet">
<metadata>
Created by potrace 1.11, written by Peter Selinger 2001-2013
</metadata>
<g transform="translate(0.000000,573.000000) scale(0.100000,-0.100000)"
fill="#000000" stroke="none">
<path d="M2331 4445 c-36 -49 -112 -153 -168 -230 -56 -77 -106 -144 -110
-150 -10 -11 -424 -579 -518 -709 -33 -46 -70 -97 -82 -112 -12 -16 -146 -200
-299 -409 -152 -209 -290 -396 -305 -416 l-29 -37 0 -180 0 -181 698 0 c383 0
738 0 787 -1 l90 0 0 -495 0 -495 220 2 219 3 0 492 0 493 233 0 233 0 1 33
c1 41 1 283 0 322 l-1 30 -222 -1 c-123 0 -228 1 -233 3 -8 2 -11 336 -10
1059 0 581 -2 1059 -5 1063 -3 4 -101 7 -219 6 l-214 0 -66 -90z m95 -1268 l0
-773 -566 0 c-311 1 -567 4 -570 7 -4 4 260 371 362 502 9 12 59 79 110 149
51 69 219 297 373 507 154 209 283 380 286 381 3 0 5 -348 5 -773z"/>
<path d="M4020 4515 c-205 -28 -429 -93 -602 -175 l-48 -22 0 -194 c0 -107 3
-194 8 -194 4 0 22 9 41 21 68 41 231 120 320 154 138 52 196 66 356 84 187
21 379 -19 499 -103 57 -39 141 -133 169 -187 107 -212 80 -536 -63 -779 -68
-115 -255 -327 -401 -454 -304 -265 -506 -463 -654 -641 -28 -33 -52 -62 -56
-65 -7 -7 -109 -147 -145 -200 -41 -61 -81 -131 -122 -215 l-35 -70 -1 -180
c-1 -99 0 -188 2 -197 4 -17 57 -18 933 -18 l929 0 0 194 c0 146 -3 195 -12
198 -7 2 -304 3 -660 3 l-648 -1 6 29 c15 89 85 245 155 348 92 137 315 374
489 520 41 35 77 66 80 69 3 3 34 30 70 60 167 141 355 328 449 444 l71 90 0
544 0 545 -27 36 c-125 167 -345 299 -576 347 -122 25 -377 29 -527 9z"/>
</g>
</svg>
